<svg version="1.1" xmlns="http://www.w3.org/2000/svg" viewBox="-316.4160005569458 -1044.480029296875 2875.3921875 3607.2961364746093"><desc>Created with Snap</desc><defs></defs><g><g transform="matrix(19.3478,0,0,19.3478,309.6379,357.5923)">
<g>
	<path fill-rule="evenodd" clip-rule="evenodd" d="M46.1,30.6L83,2H0.9l36.7,28.5l1.6,55.6l-25.7,12h56.9l-25.9-12L46.1,30.6z
		 M42.5,20.4c-1.3-2.8,0.6-6.4,4.2-8.1c3.6-1.7,7.6-0.8,8.9,2c1.3,2.8-0.6,6.4-4.2,8.1S43.8,23.2,42.5,20.4z" fill="#a3003f" style=""></path>
	<circle fill-rule="evenodd" clip-rule="evenodd" cx="52.5" cy="15.2" r="2.1" fill="#a3003f" style=""></circle>
</g>
<desc>Created with Snap</desc><defs></defs></g><g><g transform="matrix(1.024,0,0,-1.024,0,0)"><path d="M-9 -87Q-4 -72 21 -17Q47 39 89 130Q131 222 187 344Q244 467 311 615Q314 622 317 632Q320 642 320 650Q320 661 314 667Q308 674 289 674Q247 674 220 647Q194 621 181 582Q168 543 168 506Q168 496 169 486Q170 476 171 463Q149 463 135 477Q121 492 113 512Q106 533 106 551Q106 584 124 614Q143 644 172 668Q202 692 238 706Q274 720 309 720Q344 720 369 700Q394 680 407 628Q420 577 420 480Q420 416 415 348Q411 281 406 219Q401 158 401 112Q419 172 448 239Q478 306 512 372Q547 439 581 498Q615 557 642 600Q669 644 682 665Q696 686 707 697Q718 708 736 708Q750 708 776 698Q767 679 755 639Q743 600 729 547Q714 486 698 412Q683 339 670 264Q658 189 650 121Q643 54 643 5Q643 -20 645 -34Q648 -48 652 -59Q656 -69 661 -87Q621 -87 600 -75Q579 -62 572 -35Q565 -8 565 37Q565 151 592 278Q620 405 655 541Q627 502 596 446Q566 391 536 328Q506 266 479 204Q453 143 432 90Q411 38 400 3Q392 0 389 -1Q386 -2 381 -2Q349 -2 339 37Q330 76 330 145Q330 185 331 233Q333 282 335 333Q338 384 339 433Q341 482 341 523Q341 540 340 554Q340 569 340 581Q262 401 209 273Q156 146 119 66Q83 -13 53 -50Q23 -87 -9 -87ZM869 -29Q827 -29 806 -4Q785 22 785 59Q785 82 793 117Q801 152 815 190Q830 229 849 263Q868 297 889 318Q911 340 932 340Q944 340 952 333Q960 326 960 313Q960 300 944 273Q929 247 908 213Q887 179 871 142Q856 105 856 71Q856 38 868 27Q880 16 903 16Q937 16 976 50Q1016 84 1059 169L1072 155Q1039 67 984 19Q930 -29 869 -29ZM988 425Q970 425 955 433Q941 442 941 461Q941 485 966 501Q992 518 1019 518Q1036 518 1047 510Q1058 502 1058 483Q1058 462 1036 443Q1014 425 988 425ZM1086 -59Q1079 -59 1075 -53Q1071 -47 1071 -41Q1071 -27 1092 3Q1113 34 1147 74Q1181 115 1220 157Q1213 206 1205 234Q1197 263 1175 263Q1152 263 1133 241Q1114 220 1096 187Q1078 154 1058 120L1044 144Q1058 170 1070 198Q1083 227 1098 253Q1113 279 1135 295Q1158 311 1192 311Q1232 311 1252 286Q1272 262 1281 223Q1327 269 1364 300Q1402 332 1415 332Q1421 332 1431 327Q1442 322 1446 311Q1433 311 1409 293Q1385 275 1353 244Q1322 213 1289 176Q1292 156 1294 129Q1296 103 1301 77Q1306 52 1316 35Q1327 18 1345 18Q1362 18 1382 33Q1402 48 1421 71Q1441 95 1457 120Q1474 146 1484 168L1498 154Q1482 110 1453 68Q1424 27 1388 0Q1353 -27 1316 -27Q1285 -27 1267 -8Q1250 11 1241 40Q1232 69 1227 101Q1186 54 1152 13Q1119 -28 1102 -51Q1095 -59 1086 -59ZM1574 -44Q1511 -44 1478 -10Q1445 24 1445 75Q1445 120 1467 169Q1490 219 1528 262Q1566 306 1611 333Q1657 361 1702 361Q1727 361 1749 348Q1772 335 1772 296Q1772 258 1749 224Q1727 191 1690 165Q1654 139 1609 122Q1565 106 1521 102Q1520 96 1519 90Q1518 84 1518 74Q1518 66 1520 52Q1523 39 1530 25Q1538 12 1554 3Q1570 -6 1596 -6Q1638 -6 1680 18Q1723 42 1760 81Q1797 121 1822 169L1839 155Q1812 95 1770 50Q1728 6 1677 -19Q1627 -44 1574 -44ZM1530 133Q1556 138 1589 153Q1622 169 1652 192Q1682 216 1701 244Q1721 272 1721 301Q1721 312 1717 317Q1713 322 1703 322Q1679 322 1653 304Q1628 287 1603 259Q1579 232 1560 198Q1541 165 1530 133ZM1980 -26Q1944 -26 1922 -7Q1900 12 1900 44Q1900 72 1914 104Q1928 137 1942 168Q1957 200 1957 225Q1957 251 1940 266Q1924 282 1905 293Q1882 236 1855 184Q1829 132 1812 104L1799 129Q1813 155 1836 203Q1859 252 1880 313Q1870 323 1870 339Q1870 366 1886 388Q1903 410 1916 410Q1927 410 1931 397Q1936 385 1936 380Q1936 375 1931 361Q1926 348 1925 343Q1925 331 1941 320Q1958 310 1978 295Q1999 281 2015 260Q2031 240 2031 208Q2031 178 2018 148Q2005 118 1992 91Q1979 64 1979 45Q1979 29 1987 24Q1995 19 2006 19Q2030 19 2056 34Q2082 49 2106 72Q2131 95 2150 120Q2169 146 2179 167L2199 152Q2180 109 2145 68Q2110 27 2067 0Q2024 -26 1980 -26Z" fill="#424077" style=""></path></g></g></g></svg>