<svg version="1.1" xmlns="http://www.w3.org/2000/svg" viewBox="-232.2 -3414.2749999999996 2697.4 3974.975"><desc>Created with Snap</desc><defs></defs><g><rect x="-232.2" y="-3414.2749999999996" width="2697.4" height="3974.975" fill="#840032" style=""></rect><g transform="matrix(23.4872,0,0,23.4872,-57.865,-3224.5112)"><path d="M67.3,19.561L78.058,7.07c0.45-0.524,0.392-1.316-0.133-1.766c-0.514-0.457-1.301-0.387-1.766,0.131L63.995,19.561H67.3z" fill="#ffffff" style=""></path><path d="M79.629,24.705c0.642-0.739,0.787-1.786,0.377-2.676c-0.407-0.892-1.297-1.463-2.277-1.463H22.27  c-0.979,0-1.869,0.571-2.276,1.463c-0.41,0.89-0.264,1.932,0.377,2.676l27.425,31.843v27.685c0,7.908-14.233,8.82-14.233,8.82  c-0.534,0-0.975,0.41-0.975,0.969c0,0.549,0.44,0.979,0.975,0.979h16.436h16.436c0.533,0,0.974-0.43,0.974-0.979  c0-0.559-0.44-0.969-0.974-0.969c0,0-14.232-0.912-14.232-8.82V56.548L79.629,24.705z M72.262,25.576L49.997,51.429L27.736,25.576  H72.262z" fill="#ffffff" style=""></path><polygon points="57.95,30.416 61.255,26.58 57.953,26.58 54.651,30.416 49.997,30.416 34.918,30.416 42.455,39.163 49.997,47.92   57.539,39.163 65.08,30.416 " fill="#ffffff" style=""></polygon><desc>Created with Snap</desc><defs></defs></g><g><g transform="matrix(0.5,0,0,-0.5,0,0)"><path d="M2198 -444L2204 -464Q2170 -489 2130 -498Q2091 -507 2051 -507Q1914 -507 1807 -467Q1701 -426 1620 -355Q1540 -284 1483 -188Q1427 -92 1389 19Q1352 130 1332 251Q1312 372 1305 492Q1298 613 1301 728Q1305 844 1315 943Q1297 916 1271 857Q1245 798 1213 719Q1182 640 1148 546Q1114 453 1080 358Q1047 263 1015 171Q984 80 959 5Q935 -70 917 -123Q900 -175 895 -193Q891 -205 884 -223Q878 -241 868 -258Q859 -275 846 -287Q834 -299 818 -299Q800 -299 788 -285Q776 -270 768 -250Q761 -230 756 -210Q752 -190 750 -178Q744 -136 739 -72Q734 -8 730 70Q727 148 725 236Q723 325 721 414Q720 504 719 590Q719 677 718 752Q718 828 718 888Q718 948 718 984Q696 934 665 857Q635 780 599 684Q564 588 525 477Q487 367 449 250Q412 133 377 14Q343 -105 316 -217Q313 -227 308 -242Q304 -256 297 -269Q290 -282 279 -292Q269 -301 254 -301Q240 -301 229 -292Q218 -283 210 -271Q203 -258 198 -244Q194 -229 193 -217Q188 -192 184 -162Q181 -132 178 -101Q176 -69 174 -39Q172 -8 170 18Q159 155 154 289Q150 423 150 559Q150 693 154 825Q159 957 168 1092Q171 1131 177 1179Q183 1228 200 1271Q218 1314 251 1343Q285 1372 343 1372Q357 1372 367 1365Q377 1359 377 1343L377 1333Q368 1273 359 1213Q350 1154 340 1092Q316 892 299 692Q283 493 283 291Q283 212 286 135Q289 58 297 -20Q366 194 418 359Q471 524 511 648Q551 772 578 859Q606 947 625 1006Q644 1065 655 1100Q666 1136 673 1155Q680 1175 683 1184Q686 1193 689 1200Q704 1234 730 1261Q756 1288 797 1288Q825 1288 842 1274Q860 1260 870 1239Q880 1218 883 1193Q887 1168 887 1147Q885 992 878 840Q871 689 866 540Q861 391 861 244Q862 97 875 -49Q915 69 949 173Q983 278 1013 373Q1044 468 1072 556Q1101 644 1131 730Q1162 816 1195 902Q1228 988 1268 1079Q1277 1097 1288 1115Q1299 1134 1313 1149Q1327 1164 1345 1174Q1363 1184 1385 1184Q1416 1184 1434 1164Q1452 1144 1461 1116Q1471 1088 1474 1057Q1477 1027 1477 1006Q1477 914 1471 802Q1465 691 1462 571Q1460 451 1465 328Q1470 205 1492 90Q1514 -25 1557 -125Q1600 -225 1673 -300Q1746 -374 1853 -417Q1961 -460 2112 -460Q2135 -460 2156 -457Q2178 -453 2198 -444ZM1988 807Q1988 787 1979 767Q1970 747 1955 731Q1941 716 1922 706Q1903 696 1883 696Q1857 696 1841 713Q1826 730 1826 756Q1826 776 1835 795Q1844 815 1858 830Q1873 845 1891 854Q1910 864 1930 864Q1956 864 1972 848Q1988 832 1988 807ZM2262 147L2268 143Q2245 105 2213 73Q2182 42 2144 18Q2107 -5 2064 -18Q2022 -31 1977 -31Q1921 -31 1877 -12Q1834 7 1804 40Q1775 74 1759 119Q1744 165 1744 219Q1744 277 1761 329Q1778 381 1808 426Q1838 472 1878 510Q1919 548 1965 578L1977 569Q1928 511 1897 439Q1867 367 1867 289Q1867 244 1877 202Q1888 161 1910 129Q1933 97 1968 78Q2003 59 2053 59Q2112 59 2165 84Q2219 109 2262 147ZM2792 512Q2792 485 2766 456Q2741 427 2704 399Q2668 371 2627 346Q2587 322 2557 305Q2579 263 2601 220Q2623 177 2652 142Q2681 108 2719 86Q2757 64 2811 64Q2862 64 2908 83Q2954 102 2992 137L2998 133Q2980 97 2952 66Q2924 35 2889 12Q2855 -11 2815 -24Q2775 -37 2733 -37Q2675 -37 2631 -16Q2588 5 2554 40Q2521 76 2494 123Q2468 170 2444 222Q2415 192 2393 157Q2371 122 2356 86Q2341 50 2333 14Q2325 -22 2325 -53Q2325 -92 2331 -122Q2338 -151 2346 -171Q2355 -190 2363 -200Q2371 -210 2374 -212L2367 -221Q2336 -217 2307 -200Q2278 -182 2255 -156Q2232 -130 2218 -99Q2204 -67 2204 -35Q2204 6 2223 46Q2242 87 2273 125Q2305 163 2345 197Q2385 231 2426 260Q2404 307 2384 350Q2364 394 2344 427Q2325 460 2306 480Q2288 500 2270 500Q2264 500 2254 496Q2244 493 2234 488Q2225 483 2216 478Q2208 473 2204 471L2198 481Q2210 496 2230 513Q2250 530 2273 543Q2296 557 2320 566Q2344 575 2365 575Q2395 575 2421 549Q2447 524 2469 486Q2491 449 2509 407Q2528 366 2543 333Q2567 348 2590 367Q2613 386 2631 408Q2649 431 2660 457Q2671 484 2671 514Q2671 526 2668 538Q2665 551 2665 563Q2665 577 2676 581Q2687 586 2698 586Q2713 586 2730 581Q2747 576 2760 566Q2774 557 2783 543Q2792 530 2792 512ZM3588 147L3596 143Q3570 105 3533 72Q3497 39 3453 15Q3410 -9 3362 -23Q3315 -37 3267 -37Q3199 -37 3140 -20Q3081 -2 3037 34Q2993 70 2968 124Q2943 179 2943 252Q2943 324 2969 386Q2996 449 3042 495Q3089 542 3152 569Q3215 596 3287 596Q3321 596 3350 586Q3380 577 3402 558Q3424 540 3436 513Q3449 486 3449 451Q3449 409 3432 377Q3415 345 3387 321Q3359 297 3323 281Q3288 265 3249 255Q3211 245 3173 240Q3136 236 3105 236L3081 236Q3094 145 3153 97Q3212 49 3316 49Q3390 49 3460 75Q3531 101 3588 147ZM3078 289L3078 266L3103 266Q3139 266 3177 277Q3215 289 3245 311Q3276 334 3296 367Q3316 400 3316 442Q3316 483 3298 510Q3281 537 3238 537Q3194 537 3163 510Q3133 484 3114 445Q3095 407 3086 364Q3078 322 3078 289ZM4307 147L4316 143Q4298 103 4270 71Q4243 39 4211 16Q4179 -6 4145 -19Q4111 -31 4080 -31Q4022 -31 3982 -11Q3942 9 3917 43Q3892 77 3881 123Q3870 169 3870 221Q3870 261 3876 304Q3882 347 3893 387Q3895 393 3897 401Q3899 410 3899 416Q3899 421 3893 424Q3876 430 3857 435Q3838 441 3819 448Q3801 455 3784 464Q3768 473 3756 487Q3755 427 3736 365Q3717 304 3685 247Q3654 191 3612 142Q3570 93 3523 57L3513 67Q3542 99 3566 143Q3590 187 3607 235Q3624 283 3633 332Q3643 381 3643 424Q3643 446 3639 465Q3635 485 3630 503Q3626 521 3622 537Q3618 554 3618 571Q3618 599 3636 615Q3654 631 3682 631Q3697 631 3705 622Q3713 614 3719 602Q3725 590 3733 577Q3741 564 3756 555Q3775 544 3804 539Q3833 534 3865 530Q3897 526 3929 522Q3961 518 3986 508Q4012 499 4028 482Q4044 466 4044 438Q4044 424 4041 410Q4039 397 4034 385Q4022 343 4013 299Q4005 256 4005 213Q4005 176 4010 145Q4016 115 4031 93Q4046 71 4071 59Q4096 47 4135 47Q4191 47 4233 74Q4275 102 4307 147Z" fill="#ffffff" style=""></path></g></g></g></svg>